<?xml version="1.0" encoding="UTF-8" standalone="no"?>
<!DOCTYPE svg PUBLIC "-//W3C//DTD SVG 1.1//EN" "http://www.w3.org/Graphics/SVG/1.1/DTD/svg11.dtd">
<svg width="100%" height="100%" viewBox="0 0 3508 2126" version="1.1" xmlns="http://www.w3.org/2000/svg" xmlns:xlink="http://www.w3.org/1999/xlink" xml:space="preserve" xmlns:serif="http://www.serif.com/" style="fill-rule:evenodd;clip-rule:evenodd;stroke-linecap:round;stroke-linejoin:round;stroke-miterlimit:1.5;">
    <g id="Layer1" transform="matrix(1,0,0,1,0,-177.165)">
        <g transform="matrix(1.38133,0,0,1.38133,-999.471,-548.148)">
            <path d="M1260.31,1276.9L1294.06,1155.19L1368.55,1180.01L1434.99,1105.54L1473.59,1112.5L1384.59,1218.77L1315.26,1198.34L1276.36,1312.93L1260.31,1276.9ZM1439.29,1382.16L1467.11,1287.94L1556.14,1254.78L1565.51,1317.49L1659.51,1289.38L1690.59,1229.77L1763.18,1294L1850.55,1260.33L1859.99,1283.18L1763.32,1325.36L1700.82,1281.38L1679.77,1322.18L1640.41,1329.17L1695.34,1422.6L1656.99,1463.47L1715.96,1494.76L1668.59,1556.75L1617.2,1566.92L1618.42,1627.18L1536.89,1665.75L1529.9,1640.52L1590.52,1614L1590.24,1540.82L1657.06,1532.46L1674.87,1505.5L1618.35,1476.02L1659.3,1425.77L1609.77,1334.8L1555.85,1361.47L1538.19,1289.96L1490.11,1310.79L1458.97,1417.92L1439.29,1382.16ZM2220.79,1282.1L2248.51,1261.9L2295.52,1343.74L2204.62,1430.67L2260.94,1486.9L2205.94,1557.48L2178.33,1565.69L2184.53,1596.92L2225.62,1583.21L2287.85,1616.82L2335.93,1569.48L2381.51,1505.43L2428.85,1539.99L2372.55,1573.42L2349.95,1601.61L2288.26,1659.84L2219.65,1616.93L2158.15,1630.57L2140.7,1548.39L2187.99,1535.56L2222.66,1493.31L2155.19,1435.14L2249.92,1342.47L2220.79,1282.1ZM2589.81,966.789L2609.27,901.764L2658.12,872.901L2648.41,817.567L2686.19,778.78L2723.1,791.329L2774.06,751.819L2766.13,691.77L2825.43,617.827L2876,635.98L2916.87,552.714L2949.74,551.562L2892.49,670.457L2834.68,654.298L2801.22,697.084L2800.52,767.683L2733.26,820.741L2700.05,808.693L2680.16,825.333L2687.85,893.256L2639.93,912.683L2620.27,968.362L2589.81,966.789ZM2737.15,1010.69L2783.36,940.839L2821.25,946.967L2892.07,916.148L2894.73,854.834L2962.21,871.629L3001.35,817.855L3067.39,814.418L3070.12,770.237L3147.4,767.914L3221.22,740.937L3228.46,774.24L3151.95,799.185L3107.34,796.704L3097.73,839.257L3024.96,850.497L2994.21,888.985L3019.54,950.654L3061.09,963.229L3070.16,1023.37L3027.27,1050.43L3033.74,1103.13L2985.36,1122.52L2973.26,1196.61L2906.26,1210.94L2861.88,1182.86L2777.74,1203.6L2778.53,1176.42L2870.91,1150.02L2917.22,1166.53L2952.11,1159.34L2953.13,1100.08L2999.3,1084.34L2994.51,1042.12L3031.71,1011.74L3031.15,985.405L3001.35,985.245L2957.52,896.862L2923.6,888.971L2921.18,934.529L2832.97,976.768L2796.79,975.527L2756.09,1043.61L2737.15,1010.69Z" style="fill:rgb(204,178,41);stroke:rgb(35,31,32);stroke-width:0.72px;"/>
        </g>
        <g transform="matrix(1.38133,0,0,1.38133,-1252.2,-492.59)">
            <path d="M1593.99,589.237C1593.99,589.237 1995.62,478.633 1979.43,702.182C1970.41,826.852 1699.4,1010.03 1699.4,1010.03C1803.01,1014.18 1906.81,1014.02 2010.91,1006.96C2010.91,1006.96 2002.67,806.042 2081.89,750.123C2161.11,694.205 2353.23,697.048 2409.46,750.277C2481.34,818.319 2449.71,947.591 2449.71,947.591C2449.71,947.591 2867.45,843.361 2951.61,983.659C3011.29,1083.14 2984.76,1195.45 2933.66,1237.41C2866.88,1292.25 2671.99,1285.79 2671.99,1285.79L2681.33,1490.62L2557.08,1515.49L2547.16,1088.76L2662.8,1081.29L2662.39,1206.7C2662.39,1206.7 2884.08,1235.07 2893.24,1115.4C2904.79,964.351 2718.28,998.177 2688.32,1004.1C2658.36,1010.03 2444.95,1039.76 2444.95,1039.76L2436.82,1261.51L2323.51,1271.89L2335.97,1056.57L2129.31,1084.76L2130.92,1235.54L2005.22,1257.3L2010.72,1102.64C1877.7,1112.58 1737.15,1113.24 1591.72,1107.91L1530.79,1001.22C1530.79,1001.22 1590.33,969.219 1686.77,898.78C1729.74,867.395 1885.54,787.225 1863.78,692.026C1841.2,593.19 1597.99,695.153 1592.15,681.538L1593.99,589.237ZM2343.05,963.289C2321.4,964.557 2392.82,798.021 2259.32,785.364C2100.6,770.317 2131.73,979.167 2128.21,989.79C2222.33,979.409 2293.2,969.418 2343.05,963.289ZM2343.05,963.289C2343.24,963.277 2343.44,963.253 2343.64,963.215C2343.45,963.24 2343.25,963.264 2343.05,963.289ZM1011.34,2025.09L1025.81,1757.97C1025.81,1757.97 931.723,1646.07 927.431,1519.13C923.139,1392.18 959.002,1304.2 1018.43,1255.23C1104.44,1184.34 1191.8,1243.31 1191.8,1243.31C1191.8,1243.31 1215.49,1215.53 1251.09,1192.5C1310.55,1154.03 1430.38,1180.36 1459.47,1216.24C1496.66,1262.12 1486.88,1336.54 1486.88,1336.54C1486.88,1336.54 1564.23,1307.69 1613.61,1321.48C1662.99,1335.28 1689.6,1395.97 1705.97,1431.58C1722.83,1468.28 1675.78,1548.65 1675.78,1548.65C1675.78,1548.65 1748.83,1547.63 1742.3,1599.05C1728.37,1708.68 1700.88,1769.66 1676.86,1795.51C1652.85,1821.37 1506.8,1860.71 1506.8,1860.71L1501.02,2027.43L1406.9,2026.95L1412.53,1774.36L1570.86,1747.6C1650.26,1733.37 1654.28,1661.48 1648.94,1610.49L1589.43,1602.03L1580.64,1559.16C1580.64,1559.16 1631.72,1517.43 1618.58,1459.38C1610.68,1424.53 1596.87,1380.45 1550.98,1383.72C1500.46,1387.32 1445.62,1413.4 1445.62,1413.4L1408.29,1377.16C1408.29,1377.16 1460.56,1278.25 1351.27,1250.67C1279.66,1232.6 1243.23,1294.14 1243.23,1294.14L1184.88,1329.15C1171.26,1291.36 1115.47,1289.84 1051.17,1327.13C1051.17,1327.13 1012.99,1432.67 1023.43,1525.26C1034.8,1626.13 1105.09,1713.89 1105.09,1713.89L1099.54,2027.34L1011.34,2025.09ZM1094.71,1418.16C1095.79,1380.86 1111.18,1376.3 1148.21,1369.05C1185.24,1361.8 1197.95,1397.14 1197.51,1432.21C1197.07,1467.28 1167.18,1485.71 1134.61,1486.25C1102.05,1486.79 1093.64,1455.47 1094.71,1418.16ZM1249.57,1367.16C1249.3,1332.9 1266.93,1324.75 1309.6,1315.27C1352.27,1305.79 1354.51,1349.27 1353.89,1394.45C1353.26,1439.62 1331.61,1445.17 1292.43,1448.58C1253.24,1451.98 1249.84,1401.43 1249.57,1367.16ZM1388.96,1505.47C1380.96,1473.26 1423.67,1468.45 1456.01,1455.09C1488.36,1441.72 1512.21,1475.76 1515.12,1507.23C1518.03,1538.68 1481.18,1564.99 1434.17,1578.71C1387.16,1592.44 1396.95,1537.69 1388.96,1505.47ZM1422.87,1645.65C1424.57,1610.14 1452.48,1612.48 1493.36,1604.57C1534.24,1596.66 1531.74,1633.23 1530.13,1669.17C1528.53,1705.1 1502.48,1706.23 1460.7,1706.23C1418.93,1706.23 1421.16,1681.17 1422.87,1645.65ZM1119.03,1545.73C1130.11,1518.18 1171.12,1538.05 1199.31,1526.51C1227.49,1514.96 1265.6,1498.91 1309.64,1542.76C1355.04,1587.97 1326.35,1606.26 1331.41,1631.4C1336.48,1656.55 1348.43,1635 1361.55,1665.5C1374.68,1696 1306.46,1739.26 1279.49,1726.14C1252.52,1713.03 1210.3,1689.08 1165.8,1651.84C1137.51,1628.17 1097.37,1599.56 1119.03,1545.73Z" style="fill:url(#_Radial1);"/>
            <clipPath id="_clip2">
                <path d="M1593.99,589.237C1593.99,589.237 1995.62,478.633 1979.43,702.182C1970.41,826.852 1699.4,1010.03 1699.4,1010.03C1803.01,1014.18 1906.81,1014.02 2010.91,1006.96C2010.91,1006.96 2002.67,806.042 2081.89,750.123C2161.11,694.205 2353.23,697.048 2409.46,750.277C2481.34,818.319 2449.71,947.591 2449.71,947.591C2449.71,947.591 2867.45,843.361 2951.61,983.659C3011.29,1083.14 2984.76,1195.45 2933.66,1237.41C2866.88,1292.25 2671.99,1285.79 2671.99,1285.79L2681.33,1490.62L2557.08,1515.49L2547.16,1088.76L2662.8,1081.29L2662.39,1206.7C2662.39,1206.7 2884.08,1235.07 2893.24,1115.4C2904.79,964.351 2718.28,998.177 2688.32,1004.1C2658.36,1010.03 2444.95,1039.76 2444.95,1039.76L2436.82,1261.51L2323.51,1271.89L2335.97,1056.57L2129.31,1084.76L2130.92,1235.54L2005.22,1257.3L2010.72,1102.64C1877.7,1112.58 1737.15,1113.24 1591.72,1107.91L1530.79,1001.22C1530.79,1001.22 1590.33,969.219 1686.77,898.78C1729.74,867.395 1885.54,787.225 1863.78,692.026C1841.2,593.19 1597.99,695.153 1592.15,681.538L1593.99,589.237ZM2343.05,963.289C2321.4,964.557 2392.82,798.021 2259.32,785.364C2100.6,770.317 2131.73,979.167 2128.21,989.79C2222.33,979.409 2293.2,969.418 2343.05,963.289ZM2343.05,963.289C2343.24,963.277 2343.44,963.253 2343.64,963.215C2343.45,963.24 2343.25,963.264 2343.05,963.289ZM1011.34,2025.09L1025.81,1757.97C1025.81,1757.97 931.723,1646.07 927.431,1519.13C923.139,1392.18 959.002,1304.2 1018.43,1255.23C1104.44,1184.34 1191.8,1243.31 1191.8,1243.31C1191.8,1243.31 1215.49,1215.53 1251.09,1192.5C1310.55,1154.03 1430.38,1180.36 1459.47,1216.24C1496.66,1262.12 1486.88,1336.54 1486.88,1336.54C1486.88,1336.54 1564.23,1307.69 1613.61,1321.48C1662.99,1335.28 1689.6,1395.97 1705.97,1431.58C1722.83,1468.28 1675.78,1548.65 1675.78,1548.65C1675.78,1548.65 1748.83,1547.63 1742.3,1599.05C1728.37,1708.68 1700.88,1769.66 1676.86,1795.51C1652.85,1821.37 1506.8,1860.71 1506.8,1860.71L1501.02,2027.43L1406.9,2026.95L1412.53,1774.36L1570.86,1747.6C1650.26,1733.37 1654.28,1661.48 1648.94,1610.49L1589.43,1602.03L1580.64,1559.16C1580.64,1559.16 1631.72,1517.43 1618.58,1459.38C1610.68,1424.53 1596.87,1380.45 1550.98,1383.72C1500.46,1387.32 1445.62,1413.4 1445.62,1413.4L1408.29,1377.16C1408.29,1377.16 1460.56,1278.25 1351.27,1250.67C1279.66,1232.6 1243.23,1294.14 1243.23,1294.14L1184.88,1329.15C1171.26,1291.36 1115.47,1289.84 1051.17,1327.13C1051.17,1327.13 1012.99,1432.67 1023.43,1525.26C1034.8,1626.13 1105.09,1713.89 1105.09,1713.89L1099.54,2027.34L1011.34,2025.09ZM1094.71,1418.16C1095.79,1380.86 1111.18,1376.3 1148.21,1369.05C1185.24,1361.8 1197.95,1397.14 1197.51,1432.21C1197.07,1467.28 1167.18,1485.71 1134.61,1486.25C1102.05,1486.79 1093.64,1455.47 1094.71,1418.16ZM1249.57,1367.16C1249.3,1332.9 1266.93,1324.75 1309.6,1315.27C1352.27,1305.79 1354.51,1349.27 1353.89,1394.45C1353.26,1439.62 1331.61,1445.17 1292.43,1448.58C1253.24,1451.98 1249.84,1401.43 1249.57,1367.16ZM1388.96,1505.47C1380.96,1473.26 1423.67,1468.45 1456.01,1455.09C1488.36,1441.72 1512.21,1475.76 1515.12,1507.23C1518.03,1538.68 1481.18,1564.99 1434.17,1578.71C1387.16,1592.44 1396.95,1537.69 1388.96,1505.47ZM1422.87,1645.65C1424.57,1610.14 1452.48,1612.48 1493.36,1604.57C1534.24,1596.66 1531.74,1633.23 1530.13,1669.17C1528.53,1705.1 1502.48,1706.23 1460.7,1706.23C1418.93,1706.23 1421.16,1681.17 1422.87,1645.65ZM1119.03,1545.73C1130.11,1518.18 1171.12,1538.05 1199.31,1526.51C1227.49,1514.96 1265.6,1498.91 1309.64,1542.76C1355.04,1587.97 1326.35,1606.26 1331.41,1631.4C1336.48,1656.55 1348.43,1635 1361.55,1665.5C1374.68,1696 1306.46,1739.26 1279.49,1726.14C1252.52,1713.03 1210.3,1689.08 1165.8,1651.84C1137.51,1628.17 1097.37,1599.56 1119.03,1545.73Z"/>
            </clipPath>
            <g clip-path="url(#_clip2)">
                <g transform="matrix(1,0,0,1,182.96,-40.2206)">
                    <path d="M1138.92,1215C1138.92,1215 1239.75,1097.39 1454.17,1315.89C1669.91,1535.74 1538.55,1745.32 1538.55,1745.32C1538.55,1745.32 1520.08,1646.05 1505.38,1636.26C1490.69,1626.46 1443.67,1608.71 1443.67,1608.71C1443.67,1608.71 1502.12,1533.51 1455.81,1438.94C1410.75,1346.94 1262.98,1420.28 1262.98,1420.28C1262.98,1420.28 1277.16,1322.84 1243.7,1290.09C1175.11,1222.98 1138.92,1215 1138.92,1215Z" style="fill:rgb(255,242,0);fill-opacity:0.49;"/>
                </g>
                <g transform="matrix(1,0,0,1,182.96,-40.2206)">
                    <path d="M1316.54,1012.17L1388.98,1185.82L1791.88,1179.08L1800.64,1343.44L1978.17,1286.52L1867.17,1250.7L1862.58,1109.3C1712.05,1119.99 1570.27,1120.05 1436.32,1110.62L1316.54,1012.17Z" style="fill:rgb(255,242,0);fill-opacity:0.49;"/>
                </g>
                <g transform="matrix(1,0,0,1,182.96,-40.2206)">
                    <path d="M2117.23,1288.66C2111.2,1288.56 2117.84,1336.3 2117.84,1336.3L2277.71,1321.2L2293.83,1264.06C2293.83,1264.06 2123.25,1288.77 2117.23,1288.66Z" style="fill:rgb(255,242,0);fill-opacity:0.49;"/>
                </g>
                <g transform="matrix(1,0,0,1,182.96,-40.2206)">
                    <path d="M2366.68,1109.91L2351.07,1575.45L2542.26,1549.94L2417.59,1509.03C2399.84,1352.5 2400.12,1184.91 2366.68,1109.91Z" style="fill:rgb(255,242,0);fill-opacity:0.38;"/>
                </g>
                <g transform="matrix(1,0,0,1,182.96,-40.2206)">
                    <path d="M2337.8,966.875C2533.29,971.162 2660.69,970.69 2726.93,1037.37C2754.41,1065.02 2780.99,1124 2754.36,1221.94C2730.78,1308.63 2545.12,1337.93 2545.12,1337.93C2545.12,1337.93 3114.32,1291.4 2826.4,973.292C2538.49,655.183 2337.8,966.875 2337.8,966.875Z" style="fill:rgb(255,242,0);fill-opacity:0.63;"/>
                </g>
            </g>
        </g>
    </g>
    <defs>
        <radialGradient id="_Radial1" cx="0" cy="0" r="1" gradientUnits="userSpaceOnUse" gradientTransform="matrix(1403.13,-333.11,111.62,470.167,1843.09,1244.17)"><stop offset="0" style="stop-color:rgb(56,179,135);stop-opacity:1"/><stop offset="1" style="stop-color:rgb(0,93,124);stop-opacity:1"/></radialGradient>
    </defs>
</svg>
